HIERARCHY
ROOT hip
{
	OFFSET 0.00000 0.00000 0.00000
	CHANNELS 6 Xposition Yposition Zposition Zrotation Yrotation Xrotation 
	JOINT lhipjoint
	{
		OFFSET 0 0 0
		CHANNELS 3 Zrotation Yrotation Xrotation
		JOINT lfemur
		{
			OFFSET 1.57314 -1.85774 0.63783
			CHANNELS 3 Zrotation Yrotation Xrotation
			JOINT ltibia
			{
				OFFSET 2.57982 -7.08799 0.00000
				CHANNELS 3 Zrotation Yrotation Xrotation
				JOINT lfoot
				{
					OFFSET 2.63993 -7.25315 0.00000
					CHANNELS 3 Zrotation Yrotation Xrotation
					JOINT ltoes
					{
						OFFSET 0.16864 -0.46332 2.12791
						CHANNELS 3 Zrotation Yrotation Xrotation
						End Site
						{
							OFFSET 0.00000 -0.00000 1.09718
						}
					}
				}
			}
		}
	}
	JOINT rhipjoint
	{
		OFFSET 0 0 0
		CHANNELS 3 Zrotation Yrotation Xrotation
		JOINT rfemur
		{
			OFFSET -1.56006 -1.85774 0.63784
			CHANNELS 3 Zrotation Yrotation Xrotation
			JOINT rtibia
			{
				OFFSET -2.54246 -6.98536 0.00000
				CHANNELS 3 Zrotation Yrotation Xrotation
				JOINT rfoot
				{
					OFFSET -2.65791 -7.30256 0.00000
					CHANNELS 3 Zrotation Yrotation Xrotation
					JOINT rtoes
					{
						OFFSET -0.18435 -0.50650 2.16316
						CHANNELS 3 Zrotation Yrotation Xrotation
						End Site
						{
							OFFSET -0.00000 -0.00000 1.11780
						}
					}
				}
			}
		}
	}
	JOINT lowerback
	{
		OFFSET 0 0 0
		CHANNELS 3 Zrotation Yrotation Xrotation
		JOINT upperback
		{
			OFFSET -0.00136 1.92812 -0.29638
			CHANNELS 3 Zrotation Yrotation Xrotation
			JOINT thorax
			{
				OFFSET -0.00528 1.96223 -0.02928
				CHANNELS 3 Zrotation Yrotation Xrotation
				JOINT lowerneck
				{
					OFFSET 0 0 0
					CHANNELS 3 Zrotation Yrotation Xrotation
					JOINT upperneck
					{
						OFFSET -0.01015 1.75586 0.07797
						CHANNELS 3 Zrotation Yrotation Xrotation
						JOINT head
						{
							OFFSET 0.05540 1.72452 0.04558
							CHANNELS 3 Zrotation Yrotation Xrotation
							End Site
							{
								OFFSET 0.02170 1.79958 0.00864
							}
						}
					}
				}
				JOINT lclavicle
				{
					OFFSET 0 0 0
					CHANNELS 3 Zrotation Yrotation Xrotation
					JOINT lhumerus
					{
						OFFSET 3.16292 1.29277 -0.65728
						CHANNELS 3 Zrotation Yrotation Xrotation
						JOINT lradius
						{
							OFFSET 5.52302 -0.00000 -0.00000
							CHANNELS 3 Zrotation Yrotation Xrotation
							JOINT lwrist
							{
								OFFSET 3.58675 -0.00000 -0.00000
								CHANNELS 3 Zrotation Yrotation Xrotation
								JOINT lhand
								{
									OFFSET 0 0 0
									CHANNELS 3 Zrotation Yrotation Xrotation
									JOINT lfingers
									{
										OFFSET 0.53641 -0.00000 -0.00000
										CHANNELS 3 Zrotation Yrotation Xrotation
										End Site
										{
											OFFSET 0.43247 -0.00000 -0.00000
										}
									}
								}
								JOINT lthumb
								{
									OFFSET 0 0 0
									CHANNELS 3 Zrotation Yrotation Xrotation
									End Site
									{
										OFFSET 0.43907 -0.00000 0.43907
									}
								}
							}
						}
					}
				}
				JOINT rclavicle
				{
					OFFSET 0 0 0
					CHANNELS 3 Zrotation Yrotation Xrotation
					JOINT rhumerus
					{
						OFFSET -3.08296 1.43376 -0.52927
						CHANNELS 3 Zrotation Yrotation Xrotation
						JOINT rradius
						{
							OFFSET -5.84780 -0.00000 0.00000
							CHANNELS 3 Zrotation Yrotation Xrotation
							JOINT rwrist
							{
								OFFSET -3.62717 -0.00000 -0.00000
								CHANNELS 3 Zrotation Yrotation Xrotation
								JOINT rhand
								{
									OFFSET 0 0 0
									CHANNELS 3 Zrotation Yrotation Xrotation
									JOINT rfingers
									{
										OFFSET -0.65052 -0.00000 -0.00000
										CHANNELS 3 Zrotation Yrotation Xrotation
										End Site
										{
											OFFSET -0.52446 -0.00000 -0.00000
										}
									}
								}
								JOINT rthumb
								{
									OFFSET 0 0 0
									CHANNELS 3 Zrotation Yrotation Xrotation
									End Site
									{
										OFFSET -0.53247 -0.00000 0.53247
									}
								}
							}
						}
					}
				}
			}
		}
	}
}
MOTION
Frames: 13
Frame Time: 0.033333
8.9082 17.7496 -2.0028 -180.5409 67.7061 -182.9058 -0.0000 0.0000 -0.0000 -12.8842 -7.8385 -13.4418 0.6735 4.6896 13.0746 -1.0602 18.9328 -1.3498 -0.0275 2.6163 7.4274 0.0000 -0.0000 -0.0000 23.5928 16.6301 4.5894 -6.2469 -13.7644 44.2178 -0.2195 15.2048 1.5592 -0.6886 -1.4672 4.1392 1.3215 -7.5098 6.1945 3.5225 -9.6197 2.0546 3.5428 -4.7691 -0.6685 5.0227 -16.4918 3.1511 -5.4270 -20.5195 32.1277 -3.5642 -9.1142 8.7731 -0.0000 0.0000 -0.0000 -76.3263 -2.4490 27.6201 15.4647 -24.7338 -3.4180 -0.0000 -0.0000 -11.6738 35.1513 16.7358 11.4116 -7.0760 0.0000 -0.0000 7.2735 48.9103 0.8745 0.0000 0.0000 0.0000 83.3983 -12.4031 -10.5498 -9.2172 15.5345 -1.2769 0.0000 0.0000 15.3210 -22.5150 10.8408 -4.6015 7.0760 0.0000 0.0000 3.0782 -18.0002 1.8710
8.1558 18.1543 -1.9566 -180.3251 68.1141 -182.9090 -0.0000 0.0000 0.0000 -12.6734 -8.8104 -13.5903 0.6681 4.7851 13.2779 -1.1303 19.1470 -0.9976 -0.0343 2.5321 7.2166 0.0000 -0.0000 -0.0000 24.2916 16.6463 5.1624 -5.9159 -13.5158 43.0602 -0.1391 15.7118 -1.0106 -0.7577 -1.6722 4.7127 1.9581 -7.6284 6.1824 3.9148 -9.7163 2.0272 3.6150 -4.8077 -0.7591 5.0410 -16.1776 3.8577 -5.5794 -19.8458 31.7991 -3.4827 -8.8348 8.4986 -0.0000 0.0000 -0.0000 -77.2005 -2.8568 27.4883 15.3084 -24.6025 -3.2926 -0.0000 -0.0000 -11.5480 35.7245 16.3514 10.8612 -7.2344 0.0000 -0.0000 6.6030 48.5720 0.6312 0.0000 0.0000 0.0000 84.8727 -12.5796 -11.5042 -9.3499 15.6631 -1.3485 0.0000 0.0000 13.6558 -25.1213 9.8968 -4.9099 7.2344 0.0000 0.0000 1.6717 -19.4207 0.7059
8.5275 17.8996 -1.8131 -180.1114 68.5804 -182.1064 -0.0000 0.0000 -0.0000 -11.6836 -7.6886 -13.7969 0.6735 4.6817 13.0106 -1.0894 19.2019 -1.1082 -0.0375 2.6495 7.5156 0.0000 -0.0000 -0.0000 24.7691 16.6326 6.1416 -5.6546 -13.1952 41.8458 -0.1365 14.7467 -3.0784 -0.8037 -2.0941 5.9477 1.7722 -7.4602 6.1696 3.5784 -9.5116 2.1008 3.3323 -4.7195 -0.6569 5.1753 -16.4754 3.1204 -5.6405 -20.4837 31.9535 -3.6167 -9.1434 8.7078 -0.0000 0.0000 -0.0000 -76.6793 -2.9379 27.5115 15.0911 -24.2439 -3.2440 -0.0000 -0.0000 -10.6957 35.0080 16.3889 10.9300 -7.1391 0.0000 -0.0000 6.6855 48.4197 0.6795 0.0000 0.0000 0.0000 83.8203 -11.7297 -10.6367 -9.5032 15.9521 -1.3619 0.0000 0.0000 16.3525 -22.0949 11.3528 -4.6314 7.1391 0.0000 0.0000 3.5468 -17.7854 2.2313
8.6328 17.8709 -1.7094 -178.4008 68.6691 -179.7877 -0.0000 0.0000 -0.0000 -10.7149 -7.7196 -13.5811 0.4804 4.3594 11.8904 -1.0586 19.9104 -0.6284 -0.0697 2.4793 7.0448 0.0000 -0.0000 -0.0000 25.3339 15.7968 6.4584 -5.3988 -12.8317 40.5529 -0.1217 13.3498 -5.6665 -0.8145 -1.4901 4.2688 1.8849 -7.3638 6.3204 3.5722 -9.3792 2.0721 3.2534 -4.6608 -0.7538 5.2000 -16.4741 2.7044 -5.6919 -20.5904 31.6499 -3.6813 -9.2036 8.7158 -0.0000 0.0000 -0.0000 -76.8755 -3.0073 26.8947 14.6753 -23.6819 -3.0665 -0.0000 -0.0000 -9.8467 35.0477 16.4227 11.0095 -7.1260 0.0000 -0.0000 6.8233 48.3965 0.7036 0.0000 0.0000 0.0000 83.5664 -11.2710 -10.4408 -9.6052 16.0782 -1.4064 0.0000 0.0000 17.6362 -20.9503 11.8320 -4.4826 7.1260 0.0000 0.0000 4.3141 -17.3457 2.8370
8.7155 17.9741 -1.6288 -177.0662 68.6426 -178.0978 -0.0000 0.0000 -0.0000 -9.9315 -8.2066 -13.1583 0.1793 3.9170 10.3044 -1.0179 20.4533 0.6780 -0.0201 1.6378 4.6574 0.0000 -0.0000 -0.0000 25.9806 14.6736 6.2931 -5.2034 -12.5215 39.4983 -0.1262 12.0662 -7.7149 -0.8036 -0.2498 0.7800 2.1112 -7.4292 6.5150 3.7695 -9.4498 1.9962 3.3440 -4.6977 -0.9068 5.2195 -16.4262 2.5650 -5.8390 -20.5183 31.2134 -3.7516 -9.1722 8.6076 -0.0000 0.0000 -0.0000 -77.0876 -3.4029 26.7071 14.5143 -23.5111 -2.9626 -0.0000 -0.0000 -10.0923 35.4976 16.8118 11.2909 -7.1623 0.0000 -0.0000 6.9132 48.8949 0.7678 0.0000 0.0000 0.0000 83.7147 -11.2486 -10.9108 -9.8234 16.2651 -1.5546 0.0000 0.0000 17.7901 -21.1358 11.8755 -4.5238 7.1623 0.0000 0.0000 4.2909 -17.4436 2.8183
7.0226 18.0310 -1.4735 -188.1921 69.9030 -190.2596 -0.0000 0.0000 -0.0000 -11.6964 -5.1451 -10.4774 -0.2813 3.1654 7.6800 -1.3661 20.0474 1.3694 0.3699 0.8372 2.1832 0.0000 -0.0000 -0.0000 23.6179 17.0758 8.7907 -4.9169 -12.6107 39.1620 0.2160 13.3189 -5.9962 -1.2826 -8.2703 23.4721 1.5387 -7.4544 5.6698 3.3966 -9.5505 2.1564 3.2647 -4.7315 -0.4576 4.5384 -16.2196 2.8961 -5.6882 -20.0110 30.6709 -3.3292 -9.0671 8.2574 -0.0000 0.0000 -0.0000 -76.5444 -3.2359 27.6531 14.8343 -23.7030 -3.2891 -0.0000 -0.0000 -9.7672 35.4269 16.8599 11.5563 -7.1994 0.0000 -0.0000 7.5365 49.4742 1.0134 0.0000 0.0000 0.0000 84.3618 -11.3850 -10.9623 -10.0401 16.6606 -1.5699 0.0000 0.0000 17.5477 -21.6354 12.0837 -4.7867 7.1994 0.0000 0.0000 4.0452 -17.3176 2.5847
7.8731 17.9150 -1.3614 -187.7465 70.4547 -189.5020 -0.0000 0.0000 -0.0000 -11.2081 -5.1426 -9.6353 -0.6441 2.4002 5.2683 -1.1514 20.6840 2.1698 0.2852 0.8203 2.1901 0.0000 -0.0000 -0.0000 23.9137 15.8873 8.0115 -4.8898 -12.3025 38.3855 -0.0299 11.8010 -9.8462 -0.9588 -1.5172 4.3998 1.0854 -7.5336 6.0433 3.3251 -9.7098 2.0352 3.4838 -4.8191 -0.6428 4.2895 -16.2314 2.0537 -5.2862 -20.2281 29.9273 -3.3498 -9.1255 8.2954 -0.0000 0.0000 -0.0000 -77.1360 -3.8075 26.5698 14.6270 -23.4591 -3.1675 -0.0000 -0.0000 -9.4572 35.4581 16.6872 11.3402 -7.1524 0.0000 -0.0000 7.1734 49.0847 0.8666 0.0000 0.0000 0.0000 83.6961 -11.7265 -11.1351 -10.6149 17.2187 -1.9420 0.0000 0.0000 17.8170 -20.9727 12.3034 -4.6727 7.1524 0.0000 0.0000 4.3909 -16.9520 2.9064
8.6541 17.8394 -1.2455 -185.5389 71.2206 -186.8241 -0.0000 0.0000 -0.0000 -10.4939 -4.7970 -8.3332 -1.3202 1.2951 1.4730 -1.0908 22.3221 2.8721 0.2533 0.9854 2.6622 0.0000 -0.0000 -0.0000 24.0746 15.0066 7.7980 -4.7935 -12.0322 37.5971 -0.0983 10.0303 -11.9211 -0.8760 0.8193 -2.1836 0.7449 -7.5424 6.2215 3.2106 -9.7662 1.9917 3.5712 -4.8543 -0.7172 4.3330 -16.3152 1.4060 -5.2818 -20.4976 29.6561 -3.4698 -9.2323 8.4015 -0.0000 0.0000 -0.0000 -77.1868 -4.2485 25.4116 13.9184 -22.4778 -2.8834 -0.0000 -0.0000 -8.8763 35.2369 16.1680 10.8209 -7.1247 0.0000 -0.0000 6.6520 48.1868 0.6334 0.0000 0.0000 0.0000 83.3115 -11.5758 -10.8821 -10.9903 17.6739 -2.1282 0.0000 0.0000 19.1132 -19.4281 12.8707 -4.4351 7.1247 0.0000 0.0000 5.3957 -16.4000 3.7102
8.9728 17.9371 -1.1578 -180.4807 72.5001 -181.1923 -0.0000 0.0000 -0.0000 -9.5445 -4.9447 -9.8686 -1.3080 1.4228 1.7689 -1.0316 22.4244 2.2951 0.2808 0.5230 1.3541 0.0000 -0.0000 -0.0000 25.0829 15.6043 7.8570 -4.6044 -11.7857 36.7145 -0.1248 9.8344 -13.2814 -0.9251 0.5587 -1.4415 1.1956 -7.6318 6.3953 3.3942 -9.8331 2.0286 3.5155 -4.8906 -0.7741 4.8552 -16.3865 1.5900 -5.7366 -20.5550 29.8806 -3.6876 -9.2580 8.4189 -0.0000 0.0000 -0.0000 -77.2228 -4.6516 25.2448 13.0794 -21.3050 -2.5535 -0.0000 -0.0000 -8.4782 35.3582 16.2068 10.7973 -7.1602 0.0000 -0.0000 6.5038 48.1560 0.5686 0.0000 0.0000 0.0000 83.3014 -11.0814 -11.0872 -11.1763 18.0065 -2.1535 0.0000 0.0000 19.8572 -18.9630 13.3082 -4.4284 7.1602 0.0000 0.0000 5.8250 -16.1504 4.0587
8.6258 18.1271 -1.0026 -180.4346 70.4355 -180.3471 -0.0000 -0.0000 -0.0000 -9.1579 -7.0644 -10.6720 -1.4508 1.5037 1.6995 -1.0399 22.6800 2.4089 0.2342 -0.1680 -0.5370 0.0000 -0.0000 -0.0000 25.3328 15.0235 6.4888 -4.5320 -11.6769 36.3455 -0.0099 9.2702 -13.9536 -1.0003 -0.4209 1.3206 1.7565 -7.7826 6.6808 3.9300 -9.9698 1.9810 3.7791 -4.9531 -0.9670 4.8892 -16.6993 2.3759 -5.7778 -20.8142 29.5626 -3.6625 -9.3847 8.1800 0.0000 -0.0000 0.0000 -77.4427 -4.7693 25.2020 12.5550 -20.6361 -2.3110 0.0000 0.0000 -7.8164 35.9740 16.6098 11.0836 -7.2234 -0.0000 0.0000 6.6464 48.7456 0.6486 0.0000 0.0000 0.0000 83.5964 -10.7120 -11.5832 -11.2041 18.0240 -2.1770 0.0000 0.0000 18.4713 -20.8154 12.8523 -4.7582 7.2234 0.0000 0.0000 4.7197 -16.7170 3.1982
8.8331 17.9923 -0.8497 -181.1481 71.2792 -181.0336 -0.0000 -0.0000 -0.0000 -8.7668 -6.0803 -10.4457 -1.4539 1.4816 1.6282 -0.9909 22.0320 1.2623 0.3096 -0.3421 -1.0731 0.0000 -0.0000 -0.0000 25.7912 15.2891 6.9019 -4.4752 -11.5866 36.0497 -0.0671 9.5462 -14.0222 -1.0089 -1.0185 3.0211 1.4858 -7.6075 6.6242 3.5441 -9.7691 2.0103 3.4982 -4.8600 -0.9113 4.9796 -16.6906 1.8519 -5.7472 -20.9479 29.5741 -3.6991 -9.4567 8.2838 0.0000 -0.0000 0.0000 -77.4037 -4.7621 24.6743 12.3516 -20.3009 -2.2605 0.0000 0.0000 -7.5040 35.5581 16.7288 11.1789 -7.1788 -0.0000 0.0000 6.6456 48.8009 0.6825 0.0000 0.0000 0.0000 83.2343 -10.2728 -10.6807 -11.1934 18.0918 -2.1225 0.0000 0.0000 20.3306 -18.8738 14.1007 -4.6808 7.1788 0.0000 0.0000 5.9802 -15.4103 4.2483
9.0128 17.9897 -0.7818 -178.9941 72.4747 -178.8615 -0.0000 -0.0000 -0.0000 -8.1857 -5.6997 -10.8623 -1.4417 1.5481 1.7801 -0.9270 21.2429 0.3398 0.4565 -1.1743 -3.4701 0.0000 0.0000 -0.0000 26.5324 15.5486 6.7613 -4.4658 -11.4931 35.8472 -0.1559 10.2163 -14.6491 -1.0013 -1.1356 3.3394 1.7704 -7.5925 6.6696 3.6040 -9.7208 1.9737 3.3987 -4.8354 -0.9958 5.2955 -16.4290 1.6051 -6.2149 -20.5504 29.6807 -3.8885 -9.2543 8.3021 0.0000 -0.0000 0.0000 -77.6887 -4.7201 24.2759 12.0346 -19.8590 -2.1305 0.0000 0.0000 -7.4725 35.2923 16.6340 10.9239 -7.1801 -0.0000 0.0000 6.1057 48.6144 0.5548 0.0000 0.0000 0.0000 82.9302 -10.1026 -10.6832 -11.2302 18.1456 -2.1349 0.0000 0.0000 20.7560 -18.5988 14.4407 -4.7242 7.1801 0.0000 0.0000 6.1888 -15.0876 4.4337
8.8643 17.9566 -0.6816 -182.3479 73.5888 -182.5439 0.0000 -0.0000 -0.0000 -8.1676 -4.5362 -11.0500 -1.4320 1.5111 1.6765 -0.8515 19.6725 0.3612 0.8990 -3.8430 -11.1701 0.0000 0.0000 -0.0000 25.8859 17.4291 6.9783 -4.4701 -11.4969 35.8709 -0.1941 10.8758 -14.7731 -1.0718 -2.6148 7.5154 1.7489 -7.6077 6.6700 3.6085 -9.7448 1.9737 3.4316 -4.8403 -1.0376 5.1567 -16.3031 1.4116 -6.4714 -20.2761 29.6009 -3.8897 -9.1311 8.2290 0.0000 -0.0000 0.0000 -77.8251 -4.8587 23.6383 11.8019 -19.4505 -2.1001 0.0000 0.0000 -6.4945 35.0254 16.4330 10.7057 -7.1640 -0.0000 0.0000 5.8121 48.4108 0.5033 0.0000 0.0000 0.0000 82.4563 -10.0935 -10.8298 -11.4416 18.4514 -2.2120 0.0000 0.0000 20.8068 -18.4730 14.8521 -4.8662 7.1640 0.0000 0.0000 6.2592 -14.5888 4.5181
